<?xml version="1.0" encoding="utf-8"?>
<!-- Generator: Adobe Illustrator 23.0.2, SVG Export Plug-In . SVG Version: 6.00 Build 0)  -->
<svg version="1.1" xmlns="http://www.w3.org/2000/svg" xmlns:xlink="http://www.w3.org/1999/xlink" x="0px" y="0px"
	 viewBox="0 0 300 300" style="enable-background:new 0 0 300 300;" xml:space="preserve">
<style type="text/css">
	.st0{fill:transparent;
			-webkit-animation: c1 7s forwards 5s;
			-moz-animation: c1 7s forwards 5s;
			-o-animation: c1 7s forwards 5s;
			animation: c1 7s forwards 5s;
	}
	.st1{fill:transparent;
			-webkit-animation: c2 6s forwards 4s;
			-moz-animation: c2 6s forwards 4s;
			-o-animation: c2 6s forwards 4s;
			animation: c2 6s forwards 4s;
	}
	.st2{fill:transparent;stroke:#951B81;stroke-miterlimit:10;
			-webkit-animation: c3 5s forwards 4.5s;
			-moz-animation: c3 5s forwards 4.5s;
			-o-animation: c3 5s forwards 4.5s;
			animation: c3 5s forwards 4.5s;
	}
	.st3{fill:transparent;stroke:#951B81;stroke-width:2;stroke-miterlimit:10;
			-webkit-animation: c4 4s forwards 4.5s;
			-moz-animation: c4 4s forwards 4.5s;
			-o-animation: c4 4s forwards 4.5s;
			animation: c4 4s forwards 4.5s;
	}
	.st4{fill:transparent;
			-webkit-animation: c5 3s forwards 4.5s;
			-moz-animation: c5 3s forwards 4.5s;
			-o-animation: c5 3s forwards 4.5s;
			animation: c5 3s forwards 4.5s;
	}
	.st5{fill:transparent;
			-webkit-animation: c6 2s forwards 4.5s;
			-moz-animation: c6 2s forwards 4.5s;
			-o-animation: c6 2s forwards 4.5s;
			animation: c6 2s forwards 4.5s;
	}
	.st6{fill:transparent;
			-webkit-animation: c7 1s forwards 4.5s;
			-moz-animation: c7 1s forwards 4.5s;
			-o-animation: c7 1s forwards 4.5s;
			animation: c7 1s forwards 4.5s;
	}
	.st7{fill:none;stroke:transparent;stroke-width:1.1406;stroke-miterlimit:10;
			-webkit-animation: c8 2s forwards 4.5s;
			-moz-animation: c8 2s forwards 4.5s;
			-o-animation: c8 2s forwards 4.5s;
			animation: c8 2s forwards 4.5s;
	}
	.st8{fill:none;stroke:transparent;stroke-width:0.7552;stroke-miterlimit:10;
			-webkit-animation: c9 3s forwards 4.5s;
			-moz-animation: c9 3s forwards 4.5s;
			-o-animation: c9 3s forwards 4.5s;
			animation: c9 3s forwards 4.5s;
	}
	.st9{fill:transparent;
			-webkit-animation: c10 4s forwards 4.5s;
			-moz-animation: c10 4s forwards 4.5s;
			-o-animation: c10 4s forwards 4.5s;
			animation: c10 4s forwards 4.5s;
	}
	.st10{fill:transparent;
			-webkit-animation: c11 5s forwards 4.5s;
			-moz-animation: c11 5s forwards 4.5s;
			-o-animation: c11 5s forwards 4.5s;
			animation: c11 5s forwards 4.5s;
	}
	.st11{fill:transparent;
			-webkit-animation: c12 6s forwards 4.5s;
			-moz-animation: c12 6s forwards 4.5s;
			-o-animation: c12 6s forwards 4.5s;
			animation: c12 6s forwards 4.5s;
	}
	.st12{fill:transparent;
			-webkit-animation: c13 7s forwards 4.5s;
			-moz-animation: c13 7s forwards 4.5s;
			-o-animation: c13 7s forwards 4.5s;
			animation: c13 7s forwards 4.5s;
	}
	.st13{fill:transparent;
			-webkit-animation: c14 6s forwards 4.5s;
			-moz-animation: c14 6s forwards 4.5s;
			-o-animation: c14 6s forwards 4.5s;
			animation: c14 6s forwards 4.5s;
	}
	.st14{fill:transparent;
			-webkit-animation: c15 5s forwards 4.5s;
			-moz-animation: c15 5s forwards 4.5s;
			-o-animation: c15 5s forwards 4.5s;
			animation: c15 5s forwards 4.5s;
	}
	.st15{fill:transparent;
			-webkit-animation: c16 4s forwards 4.5s;
			-moz-animation: c16 4s forwards 4.5s;
			-o-animation: c16 4s forwards 4.5s;
			animation: c16 4s forwards 4.5s;
	}
	.st16{fill:transparent;
			-webkit-animation: c17 3s forwards 4.5s;
			-moz-animation: c17 3s forwards 4.5s;
			-o-animation: c17 3s forwards 4.5s;
			animation: c17 3s forwards 4.5s;
	}
	.st17{fill:none;stroke:#951B81;stroke-width:2;stroke-miterlimit:10;
			-webkit-animation: c18 2s forwards 4.5s;
			-moz-animation: c18 2s forwards 4.5s;
			-o-animation: c18 2s forwards 4.5s;
			animation: c18 2s forwards 4.5s;
	}
	.st18{fill:none;
	stroke:#ffffff;
	stroke-dasharray: 1400;
	stroke-miterlimit:10;
			stroke-dashoffset: 0;
			-webkit-animation: animacion 7s forwards;
			-moz-animation: animacion 7s forwards;
			-o-animation: animacion 7s forwards;
			animation: animacion 7s forwards;
	}
	@-webkit-keyframes animacion {
			0% {
				stroke-dashoffset: 1400;
			}
			90% {
				stroke: #fff;
			}

			100% {
				stroke-dashoffset: 0;
				stroke: transparent;
			}
		}
		@-keyframes animacion {
			0% {
				stroke-dashoffset: 1400;
			}
			90% {
				stroke: #fff;
			}

			100% {
				stroke-dashoffset: 0;
				stroke: transparent;
			}
		}

		@-webkit-keyframes c1 {
			from {
				fill: transparent;
			}

			to {
				fill: #951B81;
			}
		}
		@-keyframes c1 {
			from {
				fill: transparent;
			}

			to {
				fill: #951B81;
			}
		}

		@-webkit-keyframes c2 {
			from {
				fill: transparent;
			}

			to {
				fill: #962CA8;
			}
		}
		@-keyframes c2 {
			from {
				fill: transparent;
			}

			to {
				fill: #962CA8;
			}
		}

		@-webkit-keyframes c3 {
			from {
				fill: transparent;
			}

			to {
				fill: #FFCC00;
			}
		}
		@-keyframes c3 {
			from {
				fill: transparent;
			}

			to {
				fill: #FFCC00;
			}
		}

		@-webkit-keyframes c4 {
			from {
				fill: transparent;
			}

			to {
				fill: #FFCC00;
			}
		}
		@-keyframes c4 {
			from {
				fill: transparent;
			}

			to {
				fill: #FFCC00;
			}
		}

		@-webkit-keyframes c5 {
			from {
				fill: transparent;
			}

			to {
				fill: #268033;
			}
		}
		@-keyframes c5 {
			from {
				fill: transparent;
			}

			to {
				fill: #268033;
			}
		}

		@-webkit-keyframes c6 {
			from {
				fill: transparent;
			}

			to {
				fill: #268033;
			}
		}
		@-keyframes c6 {
			from {
				fill: transparent;
			}

			to {
				fill: #268033;
			}
		}

		@-webkit-keyframes c7 {
			from {
				fill: transparent;
			}

			to {
				fill: #663399;
			}
		}
		@-keyframes c7 {
			from {
				fill: transparent;
			}

			to {
				fill: #663399;
			}
		}

		@-webkit-keyframes c8 {
			from {
				fill: transparent;
			}

			to {
				fill: #663399;
			}
		}
		@-keyframes c8 {
			from {
				fill: transparent;
			}

			to {
				fill: #663399;
			}
		}

		@-webkit-keyframes c9 {
			from {
				fill: transparent;
			}

			to {
				fill: #663399;
			}
		}
		@-keyframes c9 {
			from {
				fill: transparent;
			}

			to {
				fill: #663399;
			}
		}

		@-webkit-keyframes c10 {
			from {
				fill: transparent;
			}

			to {
				fill: #39A2F7;
			}
		}
		@-keyframes c10 {
			from {
				fill: transparent;
			}

			to {
				fill: #39A2F7;
			}
		}

		@-webkit-keyframes c11 {
			from {
				fill: transparent;
			}

			to {
				fill: #39A2F7;
			}
		}
		@-keyframes c11 {
			from {
				fill: transparent;
			}

			to {
				fill: #39A2F7;
			}
		}

		@-webkit-keyframes c12 {
			from {
				fill: transparent;
			}

			to {
				fill: #3333FF;
			}
		}
		@-keyframes c12 {
			from {
				fill: transparent;
			}

			to {
				fill: #3333FF;
			}
		}

		@-webkit-keyframes c13 {
			from {
				fill: transparent;
			}

			to {
				fill: #FFCC00;
			}
		}
		@-keyframes c13 {
			from {
				fill: transparent;
			}

			to {
				fill: #FFCC00;
			}
		}

		@-webkit-keyframes c14 {
			from {
				fill: transparent;
			}

			to {
				fill: #FF3333;
			}
		}
		@-keyframes c14 {
			from {
				fill: transparent;
			}

			to {
				fill: #FF3333;
			}
		}

		@-webkit-keyframes c15 {
			from {
				fill: transparent;
			}

			to {
				fill: #00CC00;
			}
		}
		@-keyframes c15 {
			from {
				fill: transparent;
			}

			to {
				fill: #00CC00;
			}
		}

		@-webkit-keyframes c16 {
			from {
				fill: transparent;
			}

			to {
				fill: #00CC00;
			}
		}
		@-keyframes c16 {
			from {
				fill: transparent;
			}

			to {
				fill: #00CC00;
			}
		}

		@-webkit-keyframes c17 {
			from {
				fill: transparent;
			}

			to {
				fill: #FFCC00;
			}
		}
		@-keyframes c17 {
			from {
				fill: transparent;
			}

			to {
				fill: #FFCC00;
			}
		}

		@-webkit-keyframes c18 {
			from {
				fill: transparent;
			}

			to {
				fill: #FFCC00;
			}
		}
		@-keyframes c18 {
			from {
				fill: transparent;
			}

			to {
				fill: #FFCC00;
			}
		}
		
	
</style>
<g id="Morado">
	<path class="st0" d="M35.2,217.1l-3-19l2.5-1.5l11.2,14.2l-2.5,1.5l-2.7-3.7l-4,2.4l0.9,4.8L35.2,217.1z M36.4,209.1l3.3-2
		l-4.9-6.7L36.4,209.1z"/>
	<path class="st0" d="M49,209.2l-5.4-17.2l4.1-1.9c2-0.9,3.6-1.3,4.8-1c0.9,0.2,1.7,0.9,2.2,2c0.1,0.2,0.2,0.5,0.3,0.8
		c0.7,2.2,0.3,4-1.3,5.2l5.6,7.3l-2.6,1.2l-5.2-6.9l-2.3,1.1l2.5,8.1L49,209.2z M48.6,198.1l1.2-0.6c1.2-0.6,2-1.2,2.4-1.8
		c0.4-0.7,0.4-1.5,0.1-2.6c-0.1-0.3-0.2-0.5-0.3-0.7c-0.3-0.6-0.7-1-1.1-1.2c-0.6-0.2-1.5,0-2.8,0.5l-1.4,0.6L48.6,198.1z"/>
	<path class="st0" d="M62.9,202.8L59.6,185l2.8-1l6.8,13.1l0.8-15.8l2.8-1l4.1,17.5l-2.3,0.8l-2.9-12.9l-0.9,14.2l-1.6,0.6
		l-6.3-11.7l2.5,13L62.9,202.8z"/>
	<path class="st0" d="M80.1,196.9l2.5-19.1l2.8-0.7l6.8,16.7l-2.8,0.7l-1.5-4.3l-4.5,1.1l-0.5,4.8L80.1,196.9z M83.5,189.6l3.7-0.9
		l-2.9-7.8L83.5,189.6z"/>
	<path class="st0" d="M95.4,193.1L95.1,175l2.9-0.5l4.5,14l3.4-15.4l2.9-0.5l1.1,18l-2.4,0.4l-0.8-13.2l-3.3,13.9l-1.7,0.3
		l-4.3-12.6l0.3,13.3L95.4,193.1z"/>
	<path class="st0" d="M120.2,189.7c-1.1,0.1-2.1,0.1-2.8-0.1c-0.8-0.2-1.4-0.5-1.8-1c-0.4-0.5-0.7-1.1-0.9-1.7
		c-0.1-0.3-0.2-0.7-0.2-1.1c0-0.4,0-0.8,0-1.3l0.3-6.9c0.1-1.9,0.6-3.3,1.6-4.4c1-1.1,2.5-1.7,4.7-1.9c1.1-0.1,2-0.1,2.8,0.1
		c0.8,0.2,1.4,0.5,1.8,1c0.4,0.5,0.8,1,1,1.7c0.1,0.3,0.2,0.7,0.2,1.1c0,0.4,0,0.8,0,1.2l-0.3,6.9c0,0.9-0.2,1.7-0.4,2.4
		c-0.2,0.7-0.6,1.4-1.1,1.9c-0.5,0.6-1.1,1-1.9,1.4C122.2,189.3,121.3,189.6,120.2,189.7z M120.2,187.8c0.6-0.1,1.1-0.2,1.5-0.4
		c0.4-0.2,0.7-0.5,0.9-0.8s0.4-0.7,0.5-1.1c0.1-0.4,0.2-0.9,0.2-1.4l0.3-7.9c0-0.3,0-0.7,0-1c0-0.1,0-0.3,0-0.4
		c-0.1-0.4-0.2-0.7-0.4-1c-0.2-0.3-0.5-0.5-0.9-0.6c-0.4-0.1-0.9-0.1-1.5-0.1c-0.6,0.1-1.1,0.2-1.5,0.4c-0.4,0.2-0.7,0.4-0.9,0.8
		c-0.2,0.3-0.4,0.7-0.5,1.1c-0.1,0.4-0.2,0.8-0.2,1.4l-0.3,7.9c0,0.4,0,0.7,0,1c0,0.3,0.1,0.5,0.1,0.7c0.1,0.5,0.4,0.8,0.8,1.1
		C118.8,187.8,119.4,187.8,120.2,187.8z"/>
	<path class="st0" d="M135.7,188.7c-1.9,0.1-3.2-0.4-4.1-1.3c-0.8-0.8-1.2-1.9-1.3-3.3c0-0.1,0-0.3,0-0.5l2.7-0.7c0,0.2,0,0.3,0,0.5
		c0,0.3,0.1,0.7,0.1,0.9c0.1,0.4,0.2,0.8,0.4,1.2c0.2,0.4,0.5,0.7,0.9,0.9c0.4,0.2,0.9,0.3,1.5,0.3c0.8,0,1.5-0.2,1.9-0.6
		c0.5-0.4,0.7-0.9,0.8-1.6c0-0.1,0-0.3,0-0.4c0-0.2,0-0.3-0.1-0.5c-0.1-0.3-0.1-0.5-0.2-0.7c-0.1-0.2-0.3-0.4-0.5-0.7
		c-0.2-0.2-0.4-0.4-0.6-0.6c-0.2-0.1-0.4-0.3-0.7-0.6l-3.5-2.6c-0.7-0.5-1.2-1.1-1.5-1.7c-0.2-0.4-0.3-0.9-0.3-1.4
		c0-0.2,0-0.5,0-0.7c0.1-1.3,0.7-2.3,1.7-3.1c1-0.7,2.3-1.2,3.9-1.2c0,0,0.1,0,0.1,0c1.7,0,3,0.3,3.8,1c0.8,0.7,1.2,1.8,1.2,3.3
		c0,0.1,0,0.1,0,0.2l-2.6,0.6c0-0.2,0-0.3,0-0.5c0-0.3,0-0.6-0.1-0.8c-0.1-0.4-0.2-0.7-0.4-1c-0.2-0.3-0.5-0.6-0.8-0.7
		c-0.3-0.1-0.7-0.2-1.1-0.2c-0.1,0-0.2,0-0.3,0c-1.7,0.1-2.6,0.8-2.8,2.1c0,0.1,0,0.3,0,0.4c0,0.4,0.1,0.7,0.2,0.9
		c0.2,0.4,0.5,0.7,1,1.1l3.5,2.6c0.9,0.7,1.6,1.4,2.1,2.2c0.4,0.6,0.6,1.3,0.6,2.1c0,0.2,0,0.4,0,0.6c-0.1,1.3-0.7,2.4-1.8,3.2
		C138.6,188.2,137.3,188.7,135.7,188.7z"/>
	<path class="st0" d="M154.4,188.6l3-16l-4.1-0.2l0.3-1.8l11.1,0.6l-0.3,1.8l-4-0.2l-3,16L154.4,188.6z"/>
	<path class="st0" d="M169.9,190.1c-1.2-0.1-2.1-0.4-2.8-0.8c-0.7-0.4-1.2-0.9-1.5-1.4c-0.3-0.6-0.4-1.2-0.4-2c0-0.3,0-0.6,0-0.9
		c0.1-0.5,0.2-1,0.3-1.6l2.9-11.7l2.8,0.3l-3,11.8c-0.1,0.4-0.2,0.9-0.3,1.3c0,0.1,0,0.2,0,0.3c0,0.5,0,0.9,0.1,1.3
		c0.1,0.4,0.3,0.7,0.7,1c0.4,0.3,0.9,0.4,1.5,0.5c0.5,0.1,1,0,1.4-0.1c0.4-0.1,0.7-0.2,1-0.4s0.5-0.5,0.7-0.8
		c0.2-0.3,0.4-0.7,0.5-1.1c0.1-0.4,0.3-0.8,0.4-1.3l3-11.8l2.8,0.3l-2.9,11.7c-0.2,0.8-0.4,1.4-0.7,2c-0.2,0.6-0.6,1.1-1,1.6
		c-0.4,0.5-0.8,0.9-1.4,1.1c-0.5,0.3-1.1,0.5-1.9,0.6C171.6,190.2,170.8,190.2,169.9,190.1z"/>
	<path class="st0" d="M187.6,192.5l6-17l8.4,1.8l-0.6,1.7l-5.4-1.2l-2,5.7l4.2,0.9l-0.6,1.7l-4.2-0.9l-2.8,8L187.6,192.5z"/>
	<path class="st0" d="M199.4,195.2l6.8-16.7l2.8,0.8l-6.8,16.7L199.4,195.2z"/>
	<path class="st0" d="M206.9,197.2l7.7-16.3l8.2,2.6l-0.8,1.6l-5.3-1.7l-2.6,5.5l4.3,1.4l-0.7,1.6l-4.3-1.4l-2.9,6.1l5.4,1.7
		l-0.8,1.6L206.9,197.2z"/>
	<path class="st0" d="M223.3,203.2c-1.7-0.7-2.8-1.6-3.3-2.8c-0.4-1.1-0.3-2.2,0.2-3.5c0.1-0.1,0.1-0.3,0.2-0.4l2.8,0.5
		c-0.1,0.2-0.1,0.3-0.2,0.5c-0.1,0.3-0.2,0.6-0.3,0.9c-0.1,0.4-0.1,0.8-0.1,1.2s0.2,0.8,0.5,1.1c0.3,0.3,0.7,0.6,1.2,0.8
		c0.8,0.3,1.4,0.4,2,0.2c0.6-0.2,1-0.5,1.4-1.2c0.1-0.1,0.1-0.2,0.2-0.4c0.1-0.1,0.1-0.3,0.1-0.5c0.1-0.3,0.1-0.5,0.1-0.8
		c0-0.2-0.1-0.5-0.2-0.8c-0.1-0.3-0.2-0.6-0.3-0.8s-0.2-0.5-0.4-0.8l-2.2-3.8c-0.4-0.8-0.6-1.5-0.7-2.1c0-0.5,0.1-1,0.3-1.5
		c0.1-0.2,0.2-0.4,0.3-0.7c0.6-1.1,1.6-1.8,2.8-2.1c1.2-0.3,2.6-0.1,4.1,0.5c0,0,0.1,0,0.1,0c1.6,0.6,2.6,1.5,3.1,2.4
		c0.4,0.9,0.4,2.1-0.2,3.5c0,0.1,0,0.1-0.1,0.2l-2.6-0.5c0.1-0.2,0.1-0.3,0.2-0.4c0.1-0.3,0.2-0.6,0.3-0.8c0.1-0.4,0.1-0.7,0.1-1.1
		c0-0.4-0.2-0.7-0.5-1c-0.2-0.2-0.6-0.4-1-0.6c-0.1,0-0.2-0.1-0.2-0.1c-1.6-0.6-2.7-0.3-3.4,0.8c-0.1,0.1-0.1,0.2-0.2,0.4
		c-0.1,0.3-0.2,0.6-0.2,0.9c0,0.4,0.2,0.9,0.5,1.4l2.2,3.8c0.6,1,0.9,2,1,2.9c0.1,0.7,0,1.4-0.3,2.2c-0.1,0.2-0.2,0.4-0.3,0.6
		c-0.6,1.2-1.6,1.9-2.9,2.2C226.2,203.9,224.8,203.8,223.3,203.2z"/>
	<path class="st0" d="M233.8,207.5l9.1-13.5l-3.7-1.8l1-1.5l9.9,4.9l-1,1.5l-3.6-1.8l-9.1,13.5L233.8,207.5z"/>
	<path class="st0" d="M241.4,211.3l15.4-11.5l2.5,1.5l-7.3,16.5l-2.5-1.5l2-4.1l-3.9-2.4l-3.8,3L241.4,211.3z M249.1,208.7l3.3,2
		l3.6-7.5L249.1,208.7z"/>
	<path class="st1" d="M64.4,147.9c0,0,3.4-1,8.8-2.3l29.1-66.1c-0.7,0.2-1-7.5-4.3-7.7L64.4,147.9z"/>
	<path class="st1" d="M29.1,69.1l4.3,7.8c0,0,19.8,7.3,32,10.3l2.9-6.5C59.8,80.3,29.7,69.3,29.1,69.1z"/>
	<path class="st1" d="M116.8,154.5c-18.5,1.5-71.5,14.2-93.7,29.5l1.5-3.5l-2.3,4.4l5.1,6.9c22.8-15.7,77.9-28.6,95.1-29.6
		C122.2,162.2,122.5,161,116.8,154.5z"/>
	<path class="st1" d="M271.8,170.1C271.8,170.1,271.8,170.1,271.8,170.1l-0.3,0.1c0.1,0,0.1,0.1,0.1,0.1l-1.6,22.2
		c-16-11-51.1-25.4-52.3-26l-0.3,0l0,0.6l-20.3-6.5l-0.4,0.3l4.7,7.5l20.3,6.5l0,0c8.4,3.4,38.6,15.9,52.6,25.4l1.6-22.2
		C275.9,178.1,273.8,171.1,271.8,170.1z"/>
	<path class="st1" d="M258.3,99.1l0.2,0l-0.7,14.3l-17-1.6l-1.5,42.5c0.8,0.3,2.4,1.1,4.5,2l1.3-36.7l17,1.6l0.7-14.3l-4-8.1
		L258.3,99.1z"/>
	<path class="st1" d="M279,26.1c-12.4,11.3-34.6,24.3-34.6,24.3l-2.5,47.6l4.7,0.3l2.1-40.1c0,0,22.2-13,34.6-24.3l-3.8-7.8
		l-0.8-0.3L279,26.1z"/>
	<polygon class="st1" points="179.9,60 200,103.6 200.3,96.5 184.2,61.4 179.9,59.7 179.9,60 	"/>
	<polygon class="st1" points="175.7,156.9 160.7,154.6 160.5,154.6 164.8,162.4 180,164.7 182.4,115 178.4,102.4 	"/>
</g>
<g id="Amarillo">
	<path class="st2" d="M92.1,141.1c0,0-0.1-0.1-0.1-0.1c-14.8,3.3-27.6,6.9-27.6,6.9L98,71.6c-3.3,0.9-42.5-3.3-68.7-13.2l-0.3,10.6
		c0,0,30.6,11.2,39.2,11.6L23.1,184.1c22.8-15.7,78.3-28.7,95.2-29.6C108.6,153.4,99.2,148.9,92.1,141.1z"/>
	
		<radialGradient id="SVGID_1_" cx="114.8531" cy="124.7163" r="41.5047" fx="104.9965" fy="135.1678" gradientUnits="userSpaceOnUse">
		<stop  offset="0" style="stop-color:#FF6A00"/>
		<stop  offset="0.5213" style="stop-color:#FFCC00"/>
	</radialGradient>
	<circle class="st3" cx="122.8" cy="113.2" r="41.5"/>
	<path class="st2" d="M230.4,98.9c3.3,3.6,3,9.3-0.6,12.6c-2.7,2.4-6.5,2.9-9.6,1.5l-2.5,53.5c0,0,36.1,14.8,52.3,26l1.6-22.2
		c0,0-28-14.2-32.4-15.9l1.5-42.5l17,1.6l0.7-14.3l-16.5-1l2.5-47.6c0,0,22.2-13,34.6-24.3l-16.5-11.9c0,0-29.5,23.5-39,26.5
		L221,96.4C224.2,95.3,227.9,96.2,230.4,98.9z"/>
	<path class="st2" d="M217.5,167l2.5-54.1c3.2,1.5,7.1,1.1,9.8-1.4c3.6-3.3,3.9-8.9,0.6-12.6c-2.5-2.8-6.4-3.6-9.7-2.4l2.5-55.4
		l-20.8,10.6l-2.5,51.8L179.9,60l-15.3,4.5l-4.1,90.1l15.1,2.3l2.7-54.4l18.7,58.1L217.5,167z"/>
</g>
<g id="Confeti">
	<path class="st4" d="M149.4,80.8l-8.5-32.2l-25.1,23.6C115.7,72.1,130,74.5,149.4,80.8z"/>
	<path class="st5" d="M149.4,80.8l-8.5-32.2l-25.1,23.6C115.7,72.1,130,74.5,149.4,80.8z"/>
	<path class="st6" d="M142.1,133.3l26.7-15.5c0,0,3.7-2.6,2-8.9c-1.7-6.3-8-2.6-8-2.6s-1.4,6,2.3,5.7c3.7-0.3-22.9,17.2-22.9,17.2
		V133.3z"/>
	<path class="st1" d="M137.5,125.9c0,0,6.1,1.5,6.5,5.2s-4.5,7.4-4.5,7.4S144.8,134,137.5,125.9z"/>
	<path class="st1" d="M109.6,107c0,0,1.7-10.2,6.9-11c5.1-0.8,10.6,7,10.6,7S120.5,94.5,109.6,107z"/>
	<path class="st1" d="M137.7,101.3c0,0,2.7-7.9,6.8-8c4.1,0,7.4,7,7.4,7S147.9,92.6,137.7,101.3z"/>
	<path class="st7" d="M118.8,87.8c0,0-10.2,0-12.6,5.5"/>
	<path class="st8" d="M144.9,85.4c0,0-5.2-2-8,1.7"/>
	<ellipse class="st9" cx="164.3" cy="111" rx="2.7" ry="4.8"/>
	<polygon class="st10" points="142.4,127.3 143.6,133.1 148.2,130.5 146.4,125.2 	"/>
	<path class="st11" d="M69.8,87.9l5.6-6.5c0,0,2.2,7.7,7.4,10.5l-4,4.9C78.8,96.8,73.8,94.7,69.8,87.9z"/>
	<path class="st12" d="M81.6,62.2c0,0,10.2-1.5,11.7-7.4c0,0,2.8,0.6,3.7,3.4c0.9,2.8,1.9,5.9-10.5,10.2L81.6,62.2z"/>
	<path class="st6" d="M111.6,63l-8-1.9c0,0,4-13,11.1-15.8l6.2,2.8C120.9,48.2,112.6,53.5,111.6,63z"/>
	<path class="st6" d="M86.2,113.2l-6.5-3.7c0,0-6.5,5.6-6.8,12.4l6.5,2.5C79.4,124.4,76.3,120.6,86.2,113.2z"/>
	<path class="st13" d="M89.3,133l3.7,8.3c0,0-2.2,7.7-14.8,8l-3.4-8C74.8,141.4,86.2,142.6,89.3,133z"/>
	<path class="st11" d="M172.7,82l2.8,7.4c0,0-4.9-0.3-9,6.8l-4.6-5.9C161.9,90.4,165.3,82.3,172.7,82z"/>
	<path class="st13" d="M183.9,71.2l-0.9,7.1l-12.1,0.3l-0.3-8.3C170.6,70.3,178.9,74.3,183.9,71.2z"/>
	<path class="st14" d="M158.8,50.5c0,0,3.7,6.8,5.3,7.4c1.5,0.6,4.9,0,4.9,0l-2.5,5.3c0,0-4.9,3.1-8-0.9c-3.1-4-5.6-7.1-5.6-7.1
		L158.8,50.5z"/>
	<path class="st15" d="M146.6,69.7c-4.4-0.8-8.8-2-13-3.7c-2.6-1-5-2.3-7.4-3.7l-4,3.7c7.4,4.4,16.7,6.7,25.3,7.4L146.6,69.7z"/>
	<path class="st15" d="M144.5,61.5c-3.3-1.2-6.6-2.6-9.7-4.4c-0.6-0.4-1.3-0.7-1.9-1.1l-3.4,3.1c4.9,3,10.4,5.1,15.9,6.2L144.5,61.5
		z"/>
	<path class="st16" d="M142.4,53.1c-1.4-0.7-2.7-1.5-3.9-2.1c0,0,0,0-0.1,0l-2.4,2.3c1.1,0.6,2.2,1.2,3.3,1.8c1.2,0.6,2.6,1.2,4,1.7
		L142.4,53.1z"/>
	<path class="st17" d="M223.3,41.1l-2.8,54.2c0,0,12.6-0.3,11.9,9.4c-0.7,9.8-12.4,8.1-12.4,8.1l-2.5,54.1"/>
</g>
<g id="Contorno">
	<path class="st18" d="M221,96.4l2.6-55.7c9.5-3,39-26.5,39-26.5L279,26.1c-12.4,11.3-34.6,24.3-34.6,24.3l-2.5,47.6l16.5,1
		l-0.7,14.3l-17-1.6l-1.5,42.5c4.4,1.7,32.4,15.9,32.4,15.9l-1.6,22.2c-16.3-11.2-52.3-26-52.3-26l2.5-53.5c3.1,1.4,6.9,0.9,9.6-1.5
		c3.6-3.3,3.9-8.9,0.6-12.6C227.9,96.2,224.2,95.3,221,96.4z M229.8,111.5c-2.8,2.5-6.7,3-9.8,1.4l-2.5,54.1l-20.3-6.5l-18.7-58.1
		l-2.7,54.4l-15.1-2.3l1.2-27c-2.2,6.1-5.9,11.7-11,16.4c-9.2,8.3-21,11.8-32.4,10.5c-16.9,0.9-72.4,13.9-95.2,29.6L68.3,80.7
		c-8.6-0.4-39.2-11.6-39.2-11.6l0.3-10.6C55.5,68.3,94.7,72.5,98,71.6l-6.1,13.9c0.9-1,1.9-2.1,3-3c17-15.4,43.2-14.2,58.6,2.8
		c4.6,5.1,7.7,10.9,9.4,17.1l1.7-38l15.3-4.5l20.1,43.6l2.5-51.8l20.8-10.6l-2.5,55.4c3.3-1.2,7.2-0.4,9.7,2.4
		C233.7,102.5,233.4,108.2,229.8,111.5z M92,141C92.1,141,92.1,141,92,141c-8.1-9-11.6-20.6-10.5-31.9l-17.1,38.8
		C64.4,147.9,77.2,144.3,92,141z M93.5,142.6c-0.5-0.5-0.9-1-1.4-1.5C92.6,141.6,93.1,142.1,93.5,142.6z M94.1,143.1
		c0.3,0.3,0.6,0.6,0.9,0.9C94.7,143.7,94.4,143.4,94.1,143.1z M107.8,151.9c-0.1,0-0.1,0-0.2-0.1
		C107.6,151.8,107.7,151.8,107.8,151.9z M96.5,145.3c-0.3-0.2-0.6-0.5-0.9-0.7C95.9,144.8,96.2,145,96.5,145.3z M98.1,146.5
		c-0.3-0.2-0.5-0.4-0.8-0.6C97.5,146.1,97.8,146.3,98.1,146.5z M99.7,147.6c-0.3-0.2-0.5-0.4-0.8-0.5
		C99.2,147.3,99.4,147.4,99.7,147.6z M101.3,148.7c-0.2-0.2-0.5-0.3-0.7-0.5C100.8,148.4,101.1,148.5,101.3,148.7z M103,149.6
		c-0.2-0.1-0.5-0.2-0.7-0.4C102.5,149.4,102.7,149.5,103,149.6z M104.6,150.5c-0.2-0.1-0.4-0.2-0.6-0.3
		C104.2,150.3,104.4,150.4,104.6,150.5z M106.2,151.2c-0.2-0.1-0.3-0.1-0.5-0.2C105.9,151.1,106.1,151.2,106.2,151.2z"/>
</g>
</svg>
